<svg width="224" height="32" viewBox="0 0 224 32" fill="none" xmlns="http://www.w3.org/2000/svg">
<g clip-path="url(#clip0_2936_21657)">
<path d="M9.65613 28.4407C12.1151 28.4407 13.76 27.346 13.76 23.927V21.5018C13.0975 23.0288 11.0821 24.6344 8.23017 24.6344C5.12561 24.6344 0.533325 22.9446 0.533325 16.0786C0.533325 10.8463 3.77824 7.55652 8.23017 7.55652C11.1158 7.55652 13.0582 9.20143 13.833 10.7565V7.96073H18.1614V23.3825C18.1614 28.8562 14.6582 31.4667 9.29683 31.4667C3.93543 31.4667 1.39789 29.0302 0.909465 26.1446H5.27157C5.74876 27.5986 7.2814 28.4351 9.65613 28.4351V28.4407ZM9.39789 21.4681C12.2554 21.4681 13.934 19.3348 13.934 16.0337V15.7081C13.934 12.4744 11.8624 10.6892 9.39789 10.6892C6.61894 10.6892 4.92911 12.8 4.92911 16.0786C4.92911 17.7404 5.32771 19.0541 6.13052 20.0197C6.93332 20.9853 8.02245 21.4681 9.39227 21.4681H9.39789Z" fill="black"/>
<path d="M26.807 1.58319H22.1361V5.79372H26.807V1.58319Z" fill="black"/>
<path d="M26.6666 7.96631H22.2708V25.0723H26.6666V7.96631Z" fill="black"/>
<path d="M51.9635 21.8386C52.7438 21.8386 53.5803 21.6982 54.2653 21.5017V24.8028C53.3277 25.106 52.2386 25.3081 50.7958 25.3081C47.0905 25.3081 45.367 23.7474 45.367 20.3565V11.026H42.2344V7.927H45.367V3.64911H49.7291V7.927H53.5242V11.026H49.6954V19.6828C49.6954 21.4119 50.6386 21.8386 51.9635 21.8386Z" fill="black"/>
<path d="M68.845 19.5817H72.8983C72.1685 23.2084 69.3783 25.3081 65.0274 25.3081C62.1923 25.3081 60.1657 24.5109 58.6386 22.894C57.1734 21.3446 56.1965 19.2 56.1965 16.3817C56.1965 10.9417 59.812 7.38806 64.9264 7.38806C68.3397 7.38806 70.939 9.09473 72.1123 11.7165C72.8028 13.266 73.0948 15.0849 73.0049 17.3867H60.4632C60.4632 18.981 60.7327 19.621 61.3558 20.5249C61.9228 21.3558 63.2758 22.0856 65.033 22.0856C66.1165 22.0856 66.9755 21.8274 67.5313 21.4344C68.0983 21.0302 68.5418 20.4239 68.845 19.5761V19.5817ZM64.8365 10.5937C62.5572 10.5937 60.7776 11.9635 60.5979 14.6021H68.8113C68.8113 12.1937 67.2 10.5937 64.8365 10.5937Z" fill="black"/>
<path d="M87.5677 19.5817H91.621C90.8912 23.2084 88.101 25.3081 83.7501 25.3081C80.915 25.3081 78.8884 24.5109 77.3614 22.894C75.8961 21.3446 74.9193 19.2 74.9193 16.3817C74.9193 10.9417 78.5347 7.38806 83.6491 7.38806C87.0624 7.38806 89.6617 9.09473 90.835 11.7165C91.5256 13.266 91.8175 15.0849 91.7277 17.3867H79.1859C79.1859 18.981 79.4554 19.621 80.0786 20.5249C80.6456 21.3558 81.9986 22.0856 83.7557 22.0856C84.8393 22.0856 85.6982 21.8274 86.254 21.4344C86.821 21.0302 87.2645 20.4239 87.5677 19.5761V19.5817ZM83.5536 10.5937C81.2743 10.5937 79.4947 11.9635 79.315 14.6021H87.5284C87.5284 12.1937 85.9171 10.5937 83.5536 10.5937Z" fill="black"/>
<path d="M32.6119 5.69823C32.6119 2.21191 34.7059 0.353668 38.2709 0.387352C38.8379 0.387352 39.2028 0.387351 39.607 0.415422C40.0168 0.437878 40.3593 0.465948 40.7916 0.555772V3.79507C40.5389 3.75016 40.2751 3.72209 39.9888 3.71086C39.7024 3.69963 39.4161 3.69402 39.1186 3.69402C38.3888 3.69402 37.8498 3.87928 37.5017 4.24419C37.1481 4.60911 36.974 5.16489 36.974 5.90033V7.93262H40.073V11.0316H36.974V25.0723H32.6119V11.0316H29.6084V7.93262H32.6119V5.69823Z" fill="black"/>
<path d="M102.524 5.82739C101.58 6.14177 99.1102 6.95019 98.4815 7.11862C98.7116 6.13055 98.9811 3.9916 99.0204 3.16633C98.8351 3.0316 98.3748 2.94739 97.892 2.94739C97.4092 2.94739 96.9488 3.0316 96.7636 3.16633C96.8029 3.9916 97.0723 6.13055 97.3025 7.11862C96.6737 6.94458 94.2036 6.13616 93.2604 5.82739C93.0695 6.153 92.9572 7.32072 93.0246 7.69686C93.8723 8.01686 96.0674 8.39862 96.9544 8.48844C95.9215 9.21826 94.4562 10.4983 93.7432 11.4414C94.2934 11.8288 95.2309 12.4632 95.9608 12.9235C96.3874 11.8681 97.5158 9.96493 97.892 9.44283C98.2681 9.96493 99.3965 11.8681 99.8232 12.9235C100.553 12.4576 101.491 11.8288 102.041 11.4414C101.328 10.4983 99.8625 9.21826 98.8295 8.48844C99.7165 8.39862 101.906 8.01125 102.759 7.69686C102.827 7.31511 102.714 6.153 102.524 5.82739Z" fill="#0F658D"/>
<path d="M113.948 25.0723V1.02173H122.403C127.759 1.02173 130.858 3.24489 130.858 7.45541C130.858 9.67857 129.173 11.9691 127.119 12.5754C130.083 13.3165 131.935 15.5059 131.935 18.3354C131.935 22.748 128.803 25.0723 123.481 25.0723H113.948ZM122.571 11.6323C126.142 11.6323 127.927 10.1165 127.927 7.4891C127.927 4.86173 126.175 3.37962 122.605 3.37962H116.811V11.6323H122.571ZM116.811 22.7144H123.346C127.018 22.7144 129.039 21.0975 129.039 18.3354C129.039 15.5733 126.95 13.8891 123.279 13.8891H116.811V22.7144Z" fill="black"/>
<path d="M143.994 25.4765C139.211 25.4765 135.843 22.1418 135.843 16.6849C135.843 11.2281 139.312 7.72491 143.826 7.72491C148.845 7.72491 151.102 11.7333 151.102 16.0786V17.1902H138.571C138.706 21.0975 140.761 23.2533 143.994 23.2533C146.285 23.2533 147.666 22.1418 148.373 20.087H151.001C150.226 23.6912 147.295 25.4765 143.994 25.4765ZM138.672 15.1691H148.373C148.306 12.2386 146.858 9.98176 143.826 9.98176C141.165 9.98176 139.144 11.6997 138.672 15.1691Z" fill="black"/>
<path d="M158.748 11.2281C159.556 9.13965 161.679 7.72491 164.272 7.72491C168.079 7.72491 170.335 10.1165 170.335 14.1586V25.0723H167.54V14.7649C167.54 11.6323 166.159 10.0154 163.498 10.0154C160.837 10.0154 158.849 11.666 158.849 15.7418V25.0723H156.053V8.12913H158.748V11.2281Z" fill="black"/>
<path d="M182.529 25.4765C177.746 25.4765 174.377 22.1418 174.377 16.6849C174.377 11.2281 177.847 7.72491 182.361 7.72491C187.38 7.72491 189.636 11.7333 189.636 16.0786V17.1902H177.106C177.241 21.0975 179.295 23.2533 182.529 23.2533C184.82 23.2533 186.201 22.1418 186.908 20.087H189.535C188.761 23.6912 185.83 25.4765 182.529 25.4765ZM177.207 15.1691H186.908C186.841 12.2386 185.392 9.98176 182.361 9.98176C179.7 9.98176 177.678 11.6997 177.207 15.1691Z" fill="black"/>
<path d="M193.072 10.2512V8.1291H195.531V4.96278C195.531 1.79647 197.552 0.179626 200.449 0.179626C201.055 0.179626 201.83 0.246996 202.335 0.348048V2.57121C201.898 2.50384 201.224 2.47015 200.618 2.47015C199.405 2.47015 198.293 3.07647 198.293 4.99647V8.1291H201.931V10.2512H198.293V25.0723H195.531V10.2512H193.072Z" fill="black"/>
<path d="M206.276 1.19019H209.443V4.59229H206.276V1.19019ZM206.479 8.12913H209.274V25.0723H206.479V8.12913Z" fill="black"/>
<path d="M223.489 24.8702C222.243 25.2407 221.266 25.3418 220.525 25.3418C217.426 25.3418 215.843 23.8597 215.843 20.727V10.2512H213.35V8.12915H215.843V3.81757H218.605V8.12915H223.051V10.2512H218.571V20.5923C218.571 22.3776 219.481 22.9839 221.03 22.9839C221.67 22.9839 222.411 22.9165 223.489 22.5797V24.8702Z" fill="black"/>
</g>
<defs>
<clipPath id="clip0_2936_21657">
<rect width="224" height="32" fill="white"/>
</clipPath>
</defs>
</svg>
